Coordinates
version=1
nRows=11
nColumns=63
inDegrees=yes

Units are S.I. units (second, meters, Newtons, ...)
If the header above contains a line with 'inDegrees', this indicates whether rotational values are in degrees (yes) or radians (no).

endheader
time	pelvis_tilt	pelvis_list	pelvis_rotation	pelvis_tx	pelvis_ty	pelvis_tz	hip_flexion_r	hip_adduction_r	hip_rotation_r	knee_angle_r	knee_angle_r_beta	ankle_angle_r	subtalar_angle_r	mtp_angle_r	hip_flexion_l	hip_adduction_l	hip_rotation_l	knee_angle_l	knee_angle_l_beta	ankle_angle_l	subtalar_angle_l	mtp_angle_l	L5_S1_Flex_Ext	L5_S1_Lat_Bending	L5_S1_axial_rotation	L4_L5_Flex_Ext	L4_L5_Lat_Bending	L4_L5_axial_rotation	L3_L4_Flex_Ext	L3_L4_Lat_Bending	L3_L4_axial_rotation	L2_L3_Flex_Ext	L2_L3_Lat_Bending	L2_L3_axial_rotation	L1_L2_Flex_Ext	L1_L2_Lat_Bending	L1_L2_axial_rotation	L1_T12_Flex_Ext	L1_T12_Lat_Bending	L1_T12_axial_rotation	Abs_r3	Abs_r2	Abs_r1	Abs_t1	Abs_t2	neck_flexion	neck_bending	neck_rotation	arm_flex_r	arm_add_r	arm_rot_r	elbow_flex_r	pro_sup_r	wrist_flex_r	wrist_dev_r	arm_flex_l	arm_add_l	arm_rot_l	elbow_flex_l	pro_sup_l	wrist_flex_l	wrist_dev_l
0.000000	2.462662	-6.341020	85.693022	0.212184	0.770571	0.794107	11.105914	0.952586	-10.663302	18.793218	0.328004	40.346151	17.162488	0.000000	14.066746	-6.571667	-16.425466	25.324358	0.441993	41.525960	15.519706	0.000000	0.342336	0.592206	0.752787	0.635752	0.787634	0.799836	0.562424	1.439889	0.799836	0.391256	1.439889	0.658689	0.317893	1.207626	0.611640	0.195611	0.917327	0.564590	2.445273	6.699151	4.186776	0.000000	0.000000	27.578643	-1.783122	7.692850	26.756117	-10.233223	76.374229	40.986635	63.865517	8.360336	11.933513	28.819354	3.643036	68.736367	32.320634	89.084254	-7.522089	4.543382
0.018519	2.108589	-6.206283	86.096516	0.211911	0.769761	0.793924	10.669062	0.607221	-10.392306	18.220962	0.318016	40.174967	16.585852	0.000000	13.888413	-5.992403	-15.758222	25.182219	0.439513	41.021468	14.884967	0.000000	0.342367	0.528986	0.763180	0.635810	0.703551	0.810879	0.562475	1.286176	0.810879	0.391291	1.286176	0.667783	0.317922	1.078708	0.620084	0.195628	0.819399	0.572385	2.445492	5.983993	4.244581	0.000000	0.000000	27.607763	-1.802567	6.213225	26.231093	-10.048650	75.589065	40.529151	69.529719	7.971731	11.263070	28.268991	3.567288	67.722447	32.327068	88.005302	-6.679185	4.621028
0.037037	1.818456	-6.093328	86.387433	0.211731	0.769162	0.793804	10.312809	0.329547	-10.124681	17.739699	0.309616	40.064001	16.125183	0.000000	13.761078	-5.533364	-15.196174	25.113255	0.438309	40.586667	14.307178	0.000000	0.342684	0.477300	0.784697	0.636398	0.634808	0.833741	0.562995	1.160506	0.833741	0.391653	1.160506	0.686610	0.318216	0.973309	0.637567	0.195809	0.739337	0.588523	2.447755	5.399308	4.364251	0.000000	0.000000	27.630970	-1.864724	4.917927	25.811753	-9.916718	74.973954	40.169002	72.935962	7.488995	10.888790	27.833417	3.507795	66.897164	32.337818	87.131606	-5.984058	4.732311
0.055556	1.587889	-6.000471	86.581673	0.211624	0.768756	0.793745	10.030337	0.113839	-9.867270	17.342643	0.302686	40.005898	15.769408	0.000000	13.681850	-5.183699	-14.726497	25.110774	0.438266	40.216800	13.784773	0.000000	0.343214	0.436302	0.814917	0.637383	0.580281	0.865849	0.563867	1.060824	0.865849	0.392259	1.060824	0.713052	0.318709	0.889706	0.662120	0.196113	0.675831	0.611188	2.451545	4.935531	4.532322	0.000000	0.000000	27.648179	-1.963780	3.796870	25.486764	-9.832077	74.503080	39.899635	74.345471	6.926069	10.769375	27.500524	3.462272	66.234641	32.353140	86.434890	-5.426497	4.869808
0.074074	1.412512	-5.926029	86.695136	0.211575	0.768524	0.793745	9.814826	-0.045627	-9.626915	17.023009	0.297108	39.993305	15.507457	0.000000	13.647838	-4.932557	-14.336367	25.168085	0.439266	39.907109	13.316182	0.000000	0.343886	0.405146	0.851418	0.638631	0.538844	0.904631	0.564971	0.985073	0.904631	0.393028	0.985073	0.744991	0.319333	0.826174	0.691777	0.196497	0.627571	0.638563	2.456346	4.583095	4.735330	0.000000	0.000000	27.659306	-2.093927	2.839966	25.244795	-9.789376	74.150630	39.714497	74.019473	6.296894	10.863524	27.258205	3.428436	65.709003	32.373290	85.886880	-4.996292	5.026090
0.092593	1.287952	-5.868316	86.743721	0.211566	0.768447	0.793802	9.659457	-0.154575	-9.410459	16.774010	0.292762	40.018865	15.328256	0.000000	13.656148	-4.769086	-14.012959	25.278496	0.441193	39.652839	12.899837	0.000000	0.344628	0.382988	0.891780	0.640009	0.509374	0.947516	0.566190	0.931197	0.947516	0.393876	0.931197	0.780307	0.320022	0.780989	0.724571	0.196921	0.593248	0.668835	2.461645	4.332436	4.959811	0.000000	0.000000	27.664263	-2.249353	2.037128	25.074512	-9.783265	73.890791	39.607035	72.219193	5.615409	11.129938	27.094355	3.404004	65.294372	32.398526	85.459301	-4.683231	5.193734
0.111111	1.209832	-5.825649	86.743328	0.211580	0.768507	0.793914	9.557411	-0.218731	-9.224745	16.588863	0.289530	40.075223	15.220733	0.000000	13.703891	-4.682436	-13.743449	25.435315	0.443930	39.449233	12.534169	0.000000	0.345367	0.368981	0.933582	0.641382	0.490745	0.991930	0.567404	0.897140	0.991930	0.394720	0.897140	0.816884	0.320708	0.752426	0.758535	0.197343	0.571552	0.700186	2.466924	4.173987	5.192300	0.000000	0.000000	27.662966	-2.424248	1.378270	24.964582	-9.808392	73.697747	39.570697	69.205857	4.895557	11.527319	26.996866	3.386691	64.964872	32.429103	85.123879	-4.477103	5.365311
0.129630	1.173779	-5.796343	86.709856	0.211600	0.768686	0.794079	9.501869	-0.243818	-9.076616	16.460780	0.287295	40.155026	15.173818	0.000000	13.788174	-4.661753	-13.515011	25.631851	0.447360	39.291534	12.217610	0.000000	0.346032	0.362280	0.974402	0.642616	0.481832	1.035302	0.568496	0.880848	1.035302	0.395480	0.880848	0.852602	0.321325	0.738761	0.791702	0.197723	0.561172	0.730802	2.471670	4.098184	5.419333	0.000000	0.000000	27.655330	-2.612801	0.853304	24.903674	-9.859408	73.545686	39.598931	65.240690	4.151278	12.014368	26.953632	3.374216	64.694626	32.465278	84.852340	-4.367697	5.533397
0.148148	1.175417	-5.778715	86.659205	0.211608	0.768964	0.794296	9.486011	-0.235561	-8.972914	16.382978	0.285937	40.250918	15.176437	0.000000	13.906105	-4.696188	-13.314820	25.861411	0.451367	39.174986	11.948590	0.000000	0.346549	0.362039	1.011821	0.643577	0.481512	1.075060	0.569346	0.880262	1.075060	0.396071	0.880262	0.885343	0.321806	0.738270	0.822105	0.198018	0.560799	0.758866	2.475366	4.095461	5.627446	0.000000	0.000000	27.641269	-2.809202	0.452143	24.880454	-9.930960	73.408793	39.685183	60.584919	3.396511	12.549785	26.952546	3.364293	64.457758	32.507307	84.616408	-4.344803	5.690565
0.166667	1.210372	-5.771080	86.607274	0.211587	0.769324	0.794562	9.503019	-0.199684	-8.920481	16.348671	0.285338	40.355543	15.217519	0.000000	14.054794	-4.774889	-13.130053	26.117305	0.455833	39.094832	11.725542	0.000000	0.346848	0.367413	1.043417	0.644131	0.488660	1.108631	0.569836	0.893328	1.108631	0.396412	0.893328	0.912990	0.322083	0.749229	0.847776	0.198189	0.569123	0.782563	2.477498	4.156252	5.803173	0.000000	0.000000	27.620697	-3.007640	0.164702	24.883590	-10.017699	73.261254	39.822902	55.499770	2.645199	13.092271	26.981501	3.354640	64.228392	32.555448	84.387811	-4.398209	5.829389
0.185185	1.274269	-5.771754	86.569963	0.211519	0.769746	0.794875	9.546073	-0.141913	-8.926161	16.351074	0.285380	40.461548	15.285992	0.000000	14.231348	-4.887005	-12.947885	26.392840	0.460642	39.046315	11.546897	0.000000	0.346855	0.377556	1.066769	0.644144	0.502150	1.133442	0.569848	0.917990	1.133442	0.396421	0.917990	0.933423	0.322089	0.769913	0.866750	0.198193	0.584835	0.800077	2.477550	4.270991	5.933051	0.000000	0.000000	27.593530	-3.202305	-0.019108	24.901749	-10.114273	73.077256	40.005534	50.246467	1.911281	13.600527	27.028391	3.342974	63.980650	32.609955	84.138272	-4.517705	5.942443
